<svg width="96" height="96" xmlns="http://www.w3.org/2000/svg" xmlns:xlink="http://www.w3.org/1999/xlink" xml:space="preserve" overflow="hidden"><g transform="translate(-592 -312)"><path d="M678 384C678 385.3 676.5 386.5 674 387.4L674 383.8C675.4 383.4 676.8 382.8 678 382.2L678 384ZM670 377.4 670 373.8C671.4 373.4 672.8 372.8 674 372.2L674 374C674 375.3 672.5 376.5 670 377.4ZM670 388.6C668.8 388.9 667.4 389.1 666 389.3L666 385.4C667.3 385.2 668.7 385 670 384.8L670 388.6ZM662 375.4C663.3 375.2 664.7 375 666 374.8L666 378.6C664.8 378.9 663.4 379.1 662 379.3L662 375.4ZM662 389.8C660.7 389.9 659.4 390 658 390L658 386C659.2 386 660.6 385.9 662 385.8L662 389.8ZM654 380 654 376C655.2 376 656.6 375.9 658 375.8L658 379.8C656.7 379.9 655.4 379.9 654 380ZM654 390C652.6 390 651.3 389.9 650 389.8L650 386C650.7 386 651.3 386 652 386 652.6 386 653.3 386 654 386L654 390ZM646 375.8C647.3 375.9 648.6 376 650 376L650 380C648.6 380 647.3 379.9 646 379.8L646 375.8ZM646 389.3C644.6 389.1 643.2 388.9 642 388.6L642 385.4C643.3 385.6 644.6 385.7 646 385.8L646 389.3ZM638 378.6 638 374.7C639.3 374.9 640.6 375.2 642 375.3L642 379.3C640.6 379.1 639.2 378.9 638 378.6ZM638 387.4C635.5 386.4 634 385.2 634 384L634 383.8C634 383.8 634 383.8 634.1 383.8 634.4 383.9 634.6 384 634.9 384 635.9 384.3 636.9 384.5 638 384.7L638 387.4ZM622 373.8C622.7 373.8 623.3 373.9 624 373.9L624 374C624 375.4 624.3 376.8 625 377.9 624 377.9 623 377.8 622 377.7L622 373.8ZM618 361.8C619.3 362 620.6 362.3 622 362.4L622 366.4C620.6 366.2 619.2 366 618 365.7L618 361.8ZM618 377.3C616.6 377.1 615.2 376.9 614 376.6L614 372.7C615.3 372.9 616.6 373.2 618 373.3L618 377.3ZM610 361 610 359.2C611.2 359.8 612.5 360.3 614 360.7L614 364.4C611.5 363.5 610 362.3 610 361ZM610 375.4C607.5 374.4 606 373.2 606 372L606 370.2C607.2 370.8 608.5 371.3 610 371.7L610 375.4ZM606 344.2C607.2 344.8 608.5 345.3 610 345.7L610 349.4C607.5 348.4 606 347.2 606 346L606 344.2ZM618 347.4 618 351.4C616.6 351.2 615.2 351 614 350.7L614 346.8C615.3 347 616.6 347.2 618 347.4ZM628 330C640.2 330 650 332.7 650 336 650 339.3 640.2 342 628 342 615.8 342 606 339.3 606 336 606 332.7 615.8 330 628 330ZM634 377.4C631.5 376.4 630 375.2 630 374L630 372.2C631.2 372.8 632.5 373.3 634 373.7L634 377.4ZM646 349.4 646 345.8C647.4 345.4 648.8 344.8 650 344.2L650 346C650 347.3 648.5 348.5 646 349.4ZM638 351.3 638 347.4C639.3 347.2 640.7 347 642 346.8L642 350.6C640.8 350.9 639.4 351.1 638 351.3ZM630 352 630 348C631.2 348 632.6 347.9 634 347.8L634 351.8C632.7 351.9 631.4 351.9 630 352ZM622 351.8 622 347.8C623.3 347.9 624.6 348 626 348L626 352C624.6 351.9 623.3 351.9 622 351.8ZM674 364C674 367.3 664.2 370 652 370 639.8 370 630 367.3 630 364 630 360.7 639.8 358 652 358 664.2 358 674 360.7 674 364ZM680 367 680 364C680 359.3 676.3 355.9 669.1 354 666.4 353.3 663.3 352.7 659.8 352.4 659.9 352 659.9 351.5 659.9 351 659.9 348.2 658.6 345.8 655.9 344L655.9 336C655.9 331.3 652.2 327.9 645 326 640.3 324.7 634.3 324 627.9 324 619.5 324 599.9 325.2 599.9 336L599.9 346C599.9 348.8 601.2 351.2 603.9 353L603.9 354.9C601.5 356.6 599.9 358.9 599.9 362L599.9 372C599.9 376.7 603.6 380.1 610.8 382 615.5 383.3 621.5 384 627.9 384 627.9 388.7 631.6 392.1 638.8 394 643.5 395.3 649.5 396 655.9 396 664.3 396 683.9 394.8 683.9 384L683.9 374C684 371.2 682.7 368.8 680 367Z"/></g></svg>